
<svg width="300" height="300" viewBox="0 0 50 50" version="1.1" xmlns="http://www.w3.org/2000/svg" xmlns:xlink="http://www.w3.org/1999/xlink">
    <g transform="translate(8, 3)">
        <path fill="#ff675c" fill-rule="nonzero" d="M32.2865672,16.6477612 L16.9840796,0.924875622 C16.8111836,0.734996313 16.5257584,0.699318159 16.3114428,0.84079602 C16.059204,1.00054726 11.3255224,3.75835821 11.0396517,3.91810945 C10.8634546,4.00519296 10.7387635,4.17040861 10.7033333,4.36373134 C10.695142,4.39686441 10.695142,4.43149379 10.7033333,4.46462687 C10.6992505,4.48403302 10.6992505,4.50407644 10.7033333,4.52348259 L10.7033333,12.0906468 L6.05373134,14.7139303 C5.89617545,14.7942955 5.79825901,14.9574896 5.80149254,15.1343284 L5.80149254,19.649403 L1.09303483,22.3651741 C0.935478933,22.4455393 0.837562495,22.6087333 0.84079602,22.7855721 C0.836862335,22.802158 0.836862335,22.819434 0.84079602,22.8360199 L0.84079602,33.379602 C0.87267695,33.5450924 0.962016669,33.6939919 1.09303483,33.8 L16.3955224,42.5442786 C16.4722121,42.590911 16.55843,42.6196503 16.6477612,42.6283582 C16.6866203,42.6360612 16.7266135,42.6360612 16.7654726,42.6283582 L17.0345274,42.4854229 C17.328806,42.3256716 32.1688557,33.7327363 32.1688557,33.7327363 C32.3264116,33.6523712 32.4243281,33.4891771 32.4210945,33.3123383 L32.4210945,17.0681592 C32.4503397,16.9142869 32.39971,16.7560693 32.2865672,16.6477612 Z M16.5636816,2.01791045 L31.1094527,16.9840796 L26.5775622,19.5905473 L20.1034328,12.9398507 L18.9683582,11.7711443 L12.0233831,4.62437811 L16.5636816,2.01791045 Z M11.6870647,5.82671642 L13.8058706,8.00437811 L14.6971144,8.92084577 L15.2352239,9.47577114 L15.8742289,10.131592 L17.6567164,11.9561194 L18.6993035,13.0239303 L19.9773134,14.3355721 L20.5995025,14.9745771 L21.6000498,15.9751244 L22.5501493,16.9588557 L23.6936318,18.1359701 L24.2065174,18.6572637 L25.560199,20.0445771 L25.6947264,20.1791045 L25.9049254,20.3977114 C25.9322479,20.4207456 25.9575629,20.4460606 25.980597,20.4733831 L25.980597,24.1812935 C25.980597,24.1812935 16.471194,14.79801 16.4375622,14.7559701 C16.4039303,14.7139303 16.1096517,14.5625871 16.1096517,14.5625871 L11.6870647,12.040199 L11.6870647,5.82671642 Z M25.6106468,25.358408 L21.6757214,27.6453731 L11.9393035,17.9930348 L15.8910448,15.7228856 L25.6106468,25.358408 Z M11.0985075,12.9482587 L14.8568657,15.1343284 L11.0985075,17.2615423 L7.97074627,15.5126866 L7.31492537,15.1343284 L11.0985075,12.9482587 Z M6.81044776,15.9751244 L7.13835821,16.1516915 L10.7537811,18.2284577 L21.1039801,28.4189055 L21.1039801,31.9502488 L12.5278607,24.6353234 L6.81044776,19.7334826 L6.81044776,15.9751244 Z M16.059204,41.2746766 L1.84975124,33.0432836 L1.84975124,24.0047264 L8.70223881,29.8398507 L16.059204,36.1542289 L16.059204,41.2746766 Z M16.7150249,35.3134328 L2.27014925,22.9537313 L6.28074627,20.6163184 L17.1522388,29.9323383 L20.7256219,33.0096517 L16.7150249,35.3134328 Z M31.3616915,33.0432836 L17.1522388,41.2830846 L17.1522388,36.2383085 L21.8606965,33.5477612 L21.9447761,33.4889055 C22.0240105,33.4282577 22.0730795,33.3362533 22.0793035,33.2366667 L22.0793035,28.5870647 L26.7877612,25.9553731 C27.0231841,25.8208458 27.04,25.7535821 27.04,25.5349751 L27.04,20.490199 L29.6296517,18.9683582 L30.3695522,18.5395522 L30.7226866,18.3377612 L31.050597,18.1443781 L31.3280597,17.9930348 L31.3616915,33.0432836 Z" id="Shape"></path>
    </g>
</svg>